<!-- Generated by IcoMoon.io -->
<svg version="1.1" xmlns="http://www.w3.org/2000/svg" width="32" height="32" viewBox="0 0 32 32">
<title>contact</title>
<path d="M16.826 17.577q0-1.728 2.404-3.831t2.404-4.131q0-2.629-1.915-4.545t-4.545-1.915-4.507 1.915-1.878 4.545h3.23q0-1.277 0.939-2.253t2.216-0.977 2.253 0.977 0.977 2.253q0 1.052-0.751 1.878t-1.653 1.352-1.653 1.765-0.751 2.967h3.23zM16.826 23.211v-3.23h-3.23v3.23h3.23zM15.174 0q5.634 0 9.653 3.981t4.019 9.615q0 5.484-3.53 10.554t-9.314 7.85v-4.807h-0.826q-5.634 0-9.615-3.981t-3.981-9.615 3.981-9.615 9.615-3.981z"></path>
</svg>
