<!-- Generated by IcoMoon.io -->
<svg version="1.1" xmlns="http://www.w3.org/2000/svg" width="32" height="32" viewBox="0 0 32 32">
<title>git</title>
<path d="M28.8 25.6c0 0.885-0.357 1.682-0.938 2.262s-1.378 0.938-2.262 0.938-1.682-0.357-2.262-0.938-0.938-1.378-0.938-2.262 0.357-1.682 0.938-2.262 1.378-0.938 2.262-0.938 1.682 0.357 2.262 0.938 0.938 1.378 0.938 2.262zM9.6 6.4c0 0.885-0.357 1.682-0.938 2.262s-1.378 0.938-2.262 0.938-1.682-0.357-2.262-0.938-0.938-1.378-0.938-2.262 0.357-1.682 0.938-2.262 1.378-0.938 2.262-0.938 1.682 0.357 2.262 0.938 0.938 1.378 0.938 2.262zM17.6 8h4.8c0.442 0 0.84 0.178 1.131 0.469s0.469 0.69 0.469 1.131v9.801c-1.125 0.29-2.131 0.878-2.925 1.672-1.157 1.157-1.875 2.76-1.875 4.526s0.718 3.37 1.875 4.525 2.758 1.875 4.525 1.875 3.37-0.718 4.525-1.875 1.875-2.758 1.875-4.525-0.718-3.37-1.875-4.525c-0.795-0.795-1.8-1.382-2.925-1.672v-9.803c0-1.325-0.539-2.528-1.406-3.394s-2.069-1.406-3.394-1.406h-4.8c-0.883 0-1.6 0.717-1.6 1.6s0.717 1.6 1.6 1.6zM4.8 12.598v17.801c0 0.883 0.717 1.6 1.6 1.6s1.6-0.717 1.6-1.6v-17.801c1.125-0.29 2.131-0.878 2.925-1.672 1.157-1.157 1.875-2.76 1.875-4.526s-0.718-3.37-1.875-4.525-2.758-1.875-4.525-1.875-3.37 0.718-4.525 1.875-1.875 2.758-1.875 4.525 0.718 3.37 1.875 4.525c0.794 0.795 1.8 1.384 2.925 1.674z"></path>
</svg>
