<svg xmlns="http://www.w3.org/2000/svg" width="34" height="34" viewBox="-6.67 -6.67 45.33 45.33"><path d="M28.8 25.6c0 .885-.357 1.682-.938 2.262s-1.378.938-2.262.938-1.682-.357-2.262-.938-.938-1.378-.938-2.262.357-1.682.938-2.262 1.378-.938 2.262-.938 1.682.357 2.262.938.938 1.378.938 2.262zM9.6 6.4c0 .885-.357 1.682-.938 2.262S7.284 9.6 6.4 9.6s-1.682-.357-2.262-.938S3.2 7.284 3.2 6.4s.357-1.682.938-2.262S5.516 3.2 6.4 3.2s1.682.357 2.262.938S9.6 5.516 9.6 6.4zm8 1.6h4.8c.442 0 .84.178 1.131.469S24 9.159 24 9.6v9.801a6.4 6.4 0 00-4.8 6.198c0 1.766.718 3.37 1.875 4.525s2.758 1.875 4.525 1.875 3.37-.718 4.525-1.875S32 27.366 32 25.599s-.718-3.37-1.875-4.525a6.396 6.396 0 00-2.925-1.672V9.599c0-1.325-.539-2.528-1.406-3.394S23.725 4.799 22.4 4.799h-4.8a1.6 1.6 0 000 3.2zM4.8 12.598v17.801a1.6 1.6 0 003.2 0V12.598A6.4 6.4 0 0012.8 6.4c0-1.766-.718-3.37-1.875-4.525S8.167 0 6.4 0 3.03.718 1.875 1.875 0 4.633 0 6.4s.718 3.37 1.875 4.525A6.394 6.394 0 004.8 12.599z"/></svg>